ply
format ascii 1.0
comment Generated by vdc-del (Delaunay-based dual contouring)
element vertex 8
property float x
property float y
property float z
element face 12
property list uchar int vertex_indices
end_header
1.50000000 1.50000000 1.50000000
1.50000000 1.50000000 2.50000000
1.50000000 2.50000000 2.50000000
1.50000000 2.50000000 1.50000000
2.50000000 2.50000000 1.50000000
2.50000000 2.50000000 2.50000000
2.50000000 1.50000000 2.50000000
2.50000000 1.50000000 1.50000000
3 6 5 4
3 1 0 3
3 2 1 3
3 4 7 6
3 3 4 2
3 4 5 2
3 1 6 7
3 0 1 7
3 4 3 7
3 5 6 2
3 1 2 6
3 0 7 3
